<mxfile host="app.diagrams.net" agent="Mozilla/5.0 (X11; Linux x86_64) AppleWebKit/537.36 (KHTML, like Gecko) Chrome/133.0.0.0 Safari/537.36" version="26.0.16">
  <diagram name="Page-1" id="IKG87lEvJ_XWtWs9shF6">
    <mxGraphModel dx="5630" dy="3833" grid="1" gridSize="10" guides="1" tooltips="1" connect="1" arrows="1" fold="1" page="1" pageScale="1" pageWidth="850" pageHeight="1100" math="0" shadow="0">
      <root>
        <mxCell id="0" />
        <mxCell id="1" parent="0" />
        <mxCell id="lSVCM533TIFp5RTR2x2p-199" value="" style="shape=folder;fontStyle=1;spacingTop=10;tabWidth=120;tabHeight=40;tabPosition=left;html=1;whiteSpace=wrap;" vertex="1" parent="1">
          <mxGeometry x="-80" y="-470" width="600" height="510" as="geometry" />
        </mxCell>
        <mxCell id="lSVCM533TIFp5RTR2x2p-209" value="" style="group" vertex="1" connectable="0" parent="1">
          <mxGeometry x="20" y="-830" width="400" height="290" as="geometry" />
        </mxCell>
        <mxCell id="lSVCM533TIFp5RTR2x2p-206" value="&lt;span style=&quot;color: rgba(0, 0, 0, 0); font-family: monospace; font-size: 0px; font-weight: 400; text-align: start; text-wrap-mode: nowrap;&quot;&gt;%3CmxGraphModel%3E%3Croot%3E%3CmxCell%20id%3D%220%22%2F%3E%3CmxCell%20id%3D%221%22%20parent%3D%220%22%2F%3E%3CmxCell%20id%3D%222%22%20value%3D%22Repository%22%20style%3D%22text%3Balign%3Dcenter%3BfontStyle%3D1%3BverticalAlign%3Dmiddle%3BspacingLeft%3D3%3BspacingRight%3D3%3BstrokeColor%3Dnone%3Brotatable%3D0%3Bpoints%3D%5B%5B0%2C0.5%5D%2C%5B1%2C0.5%5D%5D%3BportConstraint%3Deastwest%3Bhtml%3D1%3B%22%20vertex%3D%221%22%20parent%3D%221%22%3E%3CmxGeometry%20x%3D%22-750%22%20y%3D%22200%22%20width%3D%22120%22%20height%3D%2240%22%20as%3D%22geometry%22%2F%3E%3C%2FmxCell%3E%3C%2Froot%3E%3C%2FmxGraphModel%3E&lt;/span&gt;" style="shape=folder;fontStyle=1;spacingTop=10;tabWidth=120;tabHeight=40;tabPosition=left;html=1;whiteSpace=wrap;" vertex="1" parent="lSVCM533TIFp5RTR2x2p-209">
          <mxGeometry width="400" height="290" as="geometry" />
        </mxCell>
        <mxCell id="lSVCM533TIFp5RTR2x2p-152" value="&lt;b&gt;User&lt;/b&gt;" style="swimlane;fontStyle=0;childLayout=stackLayout;horizontal=1;startSize=26;fillColor=none;horizontalStack=0;resizeParent=1;resizeParentMax=0;resizeLast=0;collapsible=1;marginBottom=0;whiteSpace=wrap;html=1;" vertex="1" parent="lSVCM533TIFp5RTR2x2p-209">
          <mxGeometry x="130" y="99.9985714285715" width="140" height="147.74603174603175" as="geometry" />
        </mxCell>
        <mxCell id="lSVCM533TIFp5RTR2x2p-153" value="&lt;span style=&quot;text-align: center; font-size: 10px;&quot;&gt;- id: string&lt;br&gt;- name: string&lt;br&gt;- email: string&lt;br&gt;- password: string&lt;br&gt;- created_at: Date&lt;br&gt;- updated_at: Date&lt;br&gt;- deleted_at: Date&lt;br&gt;+ revenues: Revenue[]&lt;/span&gt;" style="text;strokeColor=none;fillColor=none;align=left;verticalAlign=top;spacingLeft=4;spacingRight=4;overflow=hidden;rotatable=0;points=[[0,0.5],[1,0.5]];portConstraint=eastwest;whiteSpace=wrap;html=1;" vertex="1" parent="lSVCM533TIFp5RTR2x2p-152">
          <mxGeometry y="26" width="140" height="121.74603174603175" as="geometry" />
        </mxCell>
        <mxCell id="lSVCM533TIFp5RTR2x2p-207" value="Model" style="text;align=center;fontStyle=1;verticalAlign=middle;spacingLeft=3;spacingRight=3;strokeColor=none;rotatable=0;points=[[0,0.5],[1,0.5]];portConstraint=eastwest;html=1;" vertex="1" parent="lSVCM533TIFp5RTR2x2p-209">
          <mxGeometry width="120" height="40" as="geometry" />
        </mxCell>
        <mxCell id="lSVCM533TIFp5RTR2x2p-38" value="&#xa;  &#xa;    &#xa;      &#xa;        &#xa;        &#xa;        &#xa;          &#xa;        &#xa;        &#xa;          &#xa;        &#xa;        &#xa;          &#xa;        &#xa;        &#xa;          &#xa;        &#xa;        &#xa;          &#xa;        &#xa;        &#xa;          &#xa;        &#xa;        &#xa;        &#xa;          &#xa;        &#xa;        &#xa;        &#xa;          &#xa;        &#xa;        &#xa;        &#xa;          &#xa;        &#xa;        &#xa;        &#xa;          &#xa;        &#xa;        &#xa;        &#xa;          &#xa;        &#xa;&#xa;        &#xa;        &#xa;        &#xa;        &#xa;      &#xa;    &#xa;  &#xa;" style="text;whiteSpace=wrap;html=1;fontSize=12;" vertex="1" parent="1">
          <mxGeometry x="-720" y="-670" width="30" height="770" as="geometry" />
        </mxCell>
        <mxCell id="lSVCM533TIFp5RTR2x2p-39" value="&#xa;  &#xa;    &#xa;      &#xa;        &#xa;        &#xa;        &#xa;          &#xa;        &#xa;        &#xa;          &#xa;        &#xa;        &#xa;          &#xa;        &#xa;        &#xa;          &#xa;        &#xa;        &#xa;          &#xa;        &#xa;        &#xa;          &#xa;        &#xa;        &#xa;        &#xa;          &#xa;        &#xa;        &#xa;        &#xa;          &#xa;        &#xa;        &#xa;        &#xa;          &#xa;        &#xa;        &#xa;        &#xa;          &#xa;        &#xa;        &#xa;        &#xa;          &#xa;        &#xa;&#xa;        &#xa;        &#xa;        &#xa;        &#xa;      &#xa;    &#xa;  &#xa;" style="text;whiteSpace=wrap;html=1;fontSize=12;" vertex="1" parent="1">
          <mxGeometry x="-720" y="-670" width="30" height="770" as="geometry" />
        </mxCell>
        <mxCell id="lSVCM533TIFp5RTR2x2p-208" style="edgeStyle=orthogonalEdgeStyle;rounded=0;orthogonalLoop=1;jettySize=auto;html=1;endArrow=open;endFill=0;" edge="1" parent="1" source="lSVCM533TIFp5RTR2x2p-127" target="lSVCM533TIFp5RTR2x2p-152">
          <mxGeometry relative="1" as="geometry" />
        </mxCell>
        <mxCell id="lSVCM533TIFp5RTR2x2p-127" value="&lt;b&gt;UserRepository&lt;/b&gt;" style="swimlane;fontStyle=1;align=center;verticalAlign=top;childLayout=stackLayout;horizontal=1;startSize=26;horizontalStack=0;resizeParent=1;resizeParentMax=0;resizeLast=0;collapsible=1;marginBottom=0;whiteSpace=wrap;html=1;fontSize=12;" vertex="1" parent="1">
          <mxGeometry x="20" y="-351.3844444444444" width="400" height="132.76190476190476" as="geometry" />
        </mxCell>
        <mxCell id="lSVCM533TIFp5RTR2x2p-128" value="- userRepository: IUserRepository&lt;div&gt;&lt;br&gt;&lt;/div&gt;" style="text;strokeColor=none;fillColor=none;align=left;verticalAlign=top;spacingLeft=4;spacingRight=4;overflow=hidden;rotatable=0;points=[[0,0.5],[1,0.5]];portConstraint=eastwest;whiteSpace=wrap;html=1;fontSize=12;" vertex="1" parent="lSVCM533TIFp5RTR2x2p-127">
          <mxGeometry y="26" width="400" height="24.349206349206348" as="geometry" />
        </mxCell>
        <mxCell id="lSVCM533TIFp5RTR2x2p-129" value="" style="line;strokeWidth=1;fillColor=none;align=left;verticalAlign=middle;spacingTop=-1;spacingLeft=3;spacingRight=3;rotatable=0;labelPosition=right;points=[];portConstraint=eastwest;strokeColor=inherit;fontSize=12;" vertex="1" parent="lSVCM533TIFp5RTR2x2p-127">
          <mxGeometry y="50.34920634920635" width="400" height="7.492063492063492" as="geometry" />
        </mxCell>
        <mxCell id="lSVCM533TIFp5RTR2x2p-130" value="&lt;span style=&quot;text-align: center;&quot;&gt;+ create(userData: Partial&amp;lt;User&amp;gt;): Promise&amp;lt;User&amp;gt;&lt;/span&gt;&lt;br style=&quot;text-align: center;&quot;&gt;&lt;span style=&quot;text-align: center;&quot;&gt;+ getAll(): Promise&amp;lt;User[]&amp;gt;&lt;/span&gt;&lt;br style=&quot;text-align: center;&quot;&gt;&lt;span style=&quot;text-align: center;&quot;&gt;+ get(email: string): Promise&amp;lt;User | null&amp;gt;&lt;/span&gt;" style="text;strokeColor=none;fillColor=none;align=left;verticalAlign=top;spacingLeft=4;spacingRight=4;overflow=hidden;rotatable=0;points=[[0,0.5],[1,0.5]];portConstraint=eastwest;whiteSpace=wrap;html=1;fontSize=12;" vertex="1" parent="lSVCM533TIFp5RTR2x2p-127">
          <mxGeometry y="57.84126984126984" width="400" height="74.92063492063492" as="geometry" />
        </mxCell>
        <mxCell id="lSVCM533TIFp5RTR2x2p-131" style="edgeStyle=orthogonalEdgeStyle;rounded=0;orthogonalLoop=1;jettySize=auto;html=1;endArrow=block;endFill=0;fontSize=12;dashed=1;" edge="1" parent="1" source="lSVCM533TIFp5RTR2x2p-127" target="lSVCM533TIFp5RTR2x2p-124">
          <mxGeometry relative="1" as="geometry">
            <mxPoint x="400" y="427.60317460317447" as="sourcePoint" />
            <mxPoint x="1500" y="510.95238095238096" as="targetPoint" />
            <Array as="points" />
          </mxGeometry>
        </mxCell>
        <mxCell id="lSVCM533TIFp5RTR2x2p-204" value="" style="group" vertex="1" connectable="0" parent="1">
          <mxGeometry x="-690" y="-850" width="400" height="290" as="geometry" />
        </mxCell>
        <mxCell id="lSVCM533TIFp5RTR2x2p-202" value="" style="shape=folder;fontStyle=1;spacingTop=10;tabWidth=120;tabHeight=40;tabPosition=left;html=1;whiteSpace=wrap;" vertex="1" parent="lSVCM533TIFp5RTR2x2p-204">
          <mxGeometry width="400" height="290" as="geometry" />
        </mxCell>
        <mxCell id="lSVCM533TIFp5RTR2x2p-112" value="UserController" style="swimlane;fontStyle=1;align=center;verticalAlign=top;childLayout=stackLayout;horizontal=1;startSize=26;horizontalStack=0;resizeParent=1;resizeParentMax=0;resizeLast=0;collapsible=1;marginBottom=0;whiteSpace=wrap;html=1;fontSize=12;" vertex="1" parent="lSVCM533TIFp5RTR2x2p-204">
          <mxGeometry x="88" y="110" width="248" height="120" as="geometry" />
        </mxCell>
        <mxCell id="lSVCM533TIFp5RTR2x2p-113" value="&lt;div&gt;+ userService: IUserService&lt;/div&gt;&lt;div&gt;&amp;nbsp;&lt;br&gt;&lt;p style=&quot;margin: 0px 0px 0px 4px;&quot;&gt;&lt;span style=&quot;text-align: center;&quot;&gt;+ getAll(response: Response): void&lt;/span&gt;&lt;/p&gt;&lt;p style=&quot;margin: 0px 0px 0px 4px;&quot;&gt;&lt;span style=&quot;text-align: center;&quot;&gt;+ create(request: Request, response: Response): void&lt;/span&gt;&lt;/p&gt;&lt;/div&gt;" style="text;strokeColor=none;fillColor=none;align=left;verticalAlign=top;spacingLeft=4;spacingRight=4;overflow=hidden;rotatable=0;points=[[0,0.5],[1,0.5]];portConstraint=eastwest;whiteSpace=wrap;html=1;fontSize=12;" vertex="1" parent="lSVCM533TIFp5RTR2x2p-112">
          <mxGeometry y="26" width="248" height="26" as="geometry" />
        </mxCell>
        <mxCell id="lSVCM533TIFp5RTR2x2p-114" value="" style="line;strokeWidth=1;fillColor=none;align=left;verticalAlign=middle;spacingTop=-1;spacingLeft=3;spacingRight=3;rotatable=0;labelPosition=right;points=[];portConstraint=eastwest;strokeColor=inherit;fontSize=12;" vertex="1" parent="lSVCM533TIFp5RTR2x2p-112">
          <mxGeometry y="52" width="248" height="8" as="geometry" />
        </mxCell>
        <mxCell id="lSVCM533TIFp5RTR2x2p-115" value="&lt;div&gt;&lt;p style=&quot;margin: 0px 0px 0px 4px;&quot;&gt;&lt;span style=&quot;text-align: center;&quot;&gt;+ getAll(response: Response): void&lt;/span&gt;&lt;/p&gt;&lt;p style=&quot;margin: 0px 0px 0px 4px;&quot;&gt;&lt;span style=&quot;text-align: center;&quot;&gt;+ create(request: Request, response: Response): void&lt;/span&gt;&lt;/p&gt;&lt;/div&gt;" style="text;strokeColor=none;fillColor=none;align=left;verticalAlign=top;spacingLeft=4;spacingRight=4;overflow=hidden;rotatable=0;points=[[0,0.5],[1,0.5]];portConstraint=eastwest;whiteSpace=wrap;html=1;fontSize=12;" vertex="1" parent="lSVCM533TIFp5RTR2x2p-112">
          <mxGeometry y="60" width="248" height="60" as="geometry" />
        </mxCell>
        <mxCell id="lSVCM533TIFp5RTR2x2p-203" value="Controller" style="text;align=center;fontStyle=1;verticalAlign=middle;spacingLeft=3;spacingRight=3;strokeColor=none;rotatable=0;points=[[0,0.5],[1,0.5]];portConstraint=eastwest;html=1;" vertex="1" parent="lSVCM533TIFp5RTR2x2p-204">
          <mxGeometry width="96" height="40" as="geometry" />
        </mxCell>
        <mxCell id="lSVCM533TIFp5RTR2x2p-125" style="edgeStyle=orthogonalEdgeStyle;rounded=0;orthogonalLoop=1;jettySize=auto;html=1;endArrow=block;endFill=0;fontSize=12;" edge="1" parent="1" source="lSVCM533TIFp5RTR2x2p-103" target="lSVCM533TIFp5RTR2x2p-124">
          <mxGeometry relative="1" as="geometry">
            <mxPoint x="-680" y="-90" as="sourcePoint" />
            <mxPoint x="-910" y="30" as="targetPoint" />
            <Array as="points">
              <mxPoint x="-20" y="-90" />
              <mxPoint x="-20" y="-90" />
            </Array>
          </mxGeometry>
        </mxCell>
        <mxCell id="lSVCM533TIFp5RTR2x2p-179" style="edgeStyle=orthogonalEdgeStyle;rounded=0;orthogonalLoop=1;jettySize=auto;html=1;endArrow=open;endFill=0;" edge="1" parent="1" source="lSVCM533TIFp5RTR2x2p-112">
          <mxGeometry relative="1" as="geometry">
            <mxPoint x="-470" y="-360" as="targetPoint" />
            <Array as="points">
              <mxPoint x="-470" y="-360" />
            </Array>
          </mxGeometry>
        </mxCell>
        <mxCell id="lSVCM533TIFp5RTR2x2p-195" value="" style="shape=folder;fontStyle=1;spacingTop=10;tabWidth=110;tabHeight=40;tabPosition=left;html=1;whiteSpace=wrap;" vertex="1" parent="1">
          <mxGeometry x="-780" y="-460" width="600" height="510" as="geometry" />
        </mxCell>
        <mxCell id="lSVCM533TIFp5RTR2x2p-100" value="&lt;p style=&quot;margin:0px;margin-top:4px;text-align:center;&quot;&gt;&lt;font&gt;&lt;i&gt;&amp;lt;&amp;lt;Interface&amp;gt;&amp;gt;&lt;/i&gt;&lt;br&gt;&lt;b&gt;IUserService&lt;/b&gt;&lt;/font&gt;&lt;/p&gt;&lt;hr style=&quot;border-style:solid;&quot;&gt;&lt;p style=&quot;margin:0px;margin-left:4px;&quot;&gt;&lt;span style=&quot;text-align: center; background-color: transparent; color: light-dark(rgb(0, 0, 0), rgb(255, 255, 255));&quot;&gt;&lt;font&gt;+ create(name: string, email: string, password: string): Promise&amp;lt;User&amp;gt;&lt;/font&gt;&lt;/span&gt;&lt;/p&gt;&lt;p style=&quot;margin:0px;margin-left:4px;&quot;&gt;&lt;span style=&quot;text-align: center;&quot;&gt;&lt;font&gt;+ getAll(): Promise&amp;lt;User[]&amp;gt;&lt;/font&gt;&lt;/span&gt;&lt;/p&gt;" style="verticalAlign=top;align=left;overflow=fill;html=1;whiteSpace=wrap;fontSize=12;" vertex="1" parent="1">
          <mxGeometry x="-650" y="-360" width="340" height="120" as="geometry" />
        </mxCell>
        <mxCell id="lSVCM533TIFp5RTR2x2p-121" style="edgeStyle=orthogonalEdgeStyle;rounded=0;orthogonalLoop=1;jettySize=auto;html=1;dashed=1;endArrow=block;endFill=0;strokeWidth=1;fontSize=12;" edge="1" parent="1" source="lSVCM533TIFp5RTR2x2p-103" target="lSVCM533TIFp5RTR2x2p-100">
          <mxGeometry relative="1" as="geometry" />
        </mxCell>
        <mxCell id="lSVCM533TIFp5RTR2x2p-103" value="&lt;b&gt;UserService&lt;/b&gt;" style="swimlane;fontStyle=1;align=center;verticalAlign=top;childLayout=stackLayout;horizontal=1;startSize=26;horizontalStack=0;resizeParent=1;resizeParentMax=0;resizeLast=0;collapsible=1;marginBottom=0;whiteSpace=wrap;html=1;fontSize=12;" vertex="1" parent="1">
          <mxGeometry x="-680" y="-160" width="400" height="140" as="geometry" />
        </mxCell>
        <mxCell id="lSVCM533TIFp5RTR2x2p-104" value="- userRepository: IUserRepository&lt;div&gt;&lt;br&gt;&lt;/div&gt;" style="text;strokeColor=none;fillColor=none;align=left;verticalAlign=top;spacingLeft=4;spacingRight=4;overflow=hidden;rotatable=0;points=[[0,0.5],[1,0.5]];portConstraint=eastwest;whiteSpace=wrap;html=1;fontSize=12;" vertex="1" parent="lSVCM533TIFp5RTR2x2p-103">
          <mxGeometry y="26" width="400" height="26" as="geometry" />
        </mxCell>
        <mxCell id="lSVCM533TIFp5RTR2x2p-105" value="" style="line;strokeWidth=1;fillColor=none;align=left;verticalAlign=middle;spacingTop=-1;spacingLeft=3;spacingRight=3;rotatable=0;labelPosition=right;points=[];portConstraint=eastwest;strokeColor=inherit;fontSize=12;" vertex="1" parent="lSVCM533TIFp5RTR2x2p-103">
          <mxGeometry y="52" width="400" height="8" as="geometry" />
        </mxCell>
        <mxCell id="lSVCM533TIFp5RTR2x2p-106" value="&lt;span style=&quot;text-align: center;&quot;&gt;+ create(name: string, email: string, password: string): Promise&amp;lt;User&amp;gt;&lt;/span&gt;&lt;br style=&quot;text-align: center;&quot;&gt;&lt;span style=&quot;text-align: center;&quot;&gt;+ getAll(): Promise&amp;lt;User[]&amp;gt;&lt;/span&gt;&lt;br style=&quot;text-align: center;&quot;&gt;&lt;span style=&quot;text-align: center;&quot;&gt;- isValidEmail(email: string): boolean&lt;/span&gt;&lt;br style=&quot;text-align: center;&quot;&gt;&lt;span style=&quot;text-align: center;&quot;&gt;- validatePassword(password: string): string[]&lt;/span&gt;" style="text;strokeColor=none;fillColor=none;align=left;verticalAlign=top;spacingLeft=4;spacingRight=4;overflow=hidden;rotatable=0;points=[[0,0.5],[1,0.5]];portConstraint=eastwest;whiteSpace=wrap;html=1;fontSize=12;" vertex="1" parent="lSVCM533TIFp5RTR2x2p-103">
          <mxGeometry y="60" width="400" height="80" as="geometry" />
        </mxCell>
        <mxCell id="lSVCM533TIFp5RTR2x2p-197" value="&lt;span style=&quot;font-weight: 700; text-wrap-mode: nowrap;&quot;&gt;Service&lt;/span&gt;" style="text;html=1;align=center;verticalAlign=middle;whiteSpace=wrap;rounded=0;" vertex="1" parent="1">
          <mxGeometry x="-780" y="-460" width="110" height="40" as="geometry" />
        </mxCell>
        <mxCell id="lSVCM533TIFp5RTR2x2p-159" value="Repository" style="text;align=center;fontStyle=1;verticalAlign=middle;spacingLeft=3;spacingRight=3;strokeColor=none;rotatable=0;points=[[0,0.5],[1,0.5]];portConstraint=eastwest;html=1;" vertex="1" parent="1">
          <mxGeometry x="-80" y="-470" width="120" height="40" as="geometry" />
        </mxCell>
        <mxCell id="lSVCM533TIFp5RTR2x2p-124" value="&lt;p style=&quot;margin:0px;margin-top:4px;text-align:center;&quot;&gt;&lt;font&gt;&lt;i&gt;&amp;lt;&amp;lt;Interface&amp;gt;&amp;gt;&lt;/i&gt;&lt;br&gt;&lt;b&gt;IUserRepository&lt;/b&gt;&lt;br&gt;&lt;/font&gt;&lt;/p&gt;&lt;hr style=&quot;border-style:solid;&quot;&gt;&lt;p style=&quot;margin:0px;margin-left:4px;&quot;&gt;&lt;span style=&quot;text-align: center;&quot;&gt;+ create(userData: Partial&amp;lt;User&amp;gt;): Promise&amp;lt;User&amp;gt;&lt;br&gt;+ getAll(): Promise&amp;lt;User[]&amp;gt;&lt;br&gt;+ get(email: string): Promise&amp;lt;User | null&amp;gt;&lt;/span&gt;&lt;/p&gt;" style="verticalAlign=top;align=left;overflow=fill;html=1;whiteSpace=wrap;fontSize=12;" vertex="1" parent="1">
          <mxGeometry x="75" y="-150" width="290" height="112.38" as="geometry" />
        </mxCell>
      </root>
    </mxGraphModel>
  </diagram>
</mxfile>
